<svg id="maker_chain" data-name="maker chain" xmlns="http://www.w3.org/2000/svg" viewBox="0 0 694.2 271.85"><defs><style>.cls-1{fill:#2e95b4;}</style></defs><g id="maker_chain-2" data-name="maker chain"><g id="n"><path class="cls-1" d="M577.24,491.24a4.86,4.86,0,0,1,2-1.75,3,3,0,0,1,2.11-.75c.93,0,1.81,0,2.63,0h8.87a4.38,4.38,0,0,1,3.77,1.66,9.72,9.72,0,0,1,1.67,3.69l1,9.3a39.11,39.11,0,0,1,5-5.88,33.41,33.41,0,0,1,7-5.18,39.52,39.52,0,0,1,9.22-3.68,44.43,44.43,0,0,1,11.67-1.41,43.58,43.58,0,0,1,18.43,3.73,39.33,39.33,0,0,1,13.61,10.23,44.54,44.54,0,0,1,8.38,15.27,60.74,60.74,0,0,1,2.85,18.87v58.54a6.69,6.69,0,0,1-1.49,4.74,5.62,5.62,0,0,1-4.3,1.58H656.24c-2.34,0-3.91-.43-4.7-1.31s-1.18-2.43-1.18-4.65V535.74a26.91,26.91,0,0,0-1.58-9.08,24.88,24.88,0,0,0-4.61-7.95,22.21,22.21,0,0,0-7.51-5.61,24.54,24.54,0,0,0-18.74-.49,27.62,27.62,0,0,0-7.94,4.61,25.23,25.23,0,0,0-6,7.24,20.13,20.13,0,0,0-2.46,9.61V591a31,31,0,0,1-.17,3.33,10.24,10.24,0,0,1-.75,3,5,5,0,0,1-1.62,2.1,4.39,4.39,0,0,1-2.72.79H581.81a5.81,5.81,0,0,1-4.26-1.36,5.24,5.24,0,0,1-1.36-3.9v-101A4.51,4.51,0,0,1,577.24,491.24Z" transform="translate(-153.35 -329)"/></g><g id="i"><path class="cls-1" d="M542.72,491H528.19a10.87,10.87,0,0,1-5.19-1.21V595.17a5,5,0,0,0,.26,1.36,5.09,5.09,0,0,0,.86,1.62,5.45,5.45,0,0,0,1.47,1.32,4.13,4.13,0,0,0,2.17.53h15.31a4.82,4.82,0,0,0,2.34-.53,4.52,4.52,0,0,0,1.51-1.32,5.4,5.4,0,0,0,.82-1.71,6.47,6.47,0,0,0,.26-1.71V489.57A10,10,0,0,1,542.72,491Z" transform="translate(-153.35 -329)"/><path class="cls-1" d="M546.53,463.32a5.61,5.61,0,0,0-3.89-1.32H528.1q-5.1,0-5.1,5.27v13.1c0,3.76,1.73,5.63,5.19,5.63h14.53a4.64,4.64,0,0,0,3.9-1.8,6.19,6.19,0,0,0,1.38-3.83v-13.1A5,5,0,0,0,546.53,463.32Z" transform="translate(-153.35 -329)"/></g><g id="h_arc" data-name="h arc"><path class="cls-1" d="M362.32,516.53a46.17,46.17,0,0,0-7.85-15.32,37.38,37.38,0,0,0-12.8-10.35A38.64,38.64,0,0,0,324.12,487a52.31,52.31,0,0,0-10.52,1,36.08,36.08,0,0,0-8.28,2.72A31.23,31.23,0,0,0,300,494v24.26a19.57,19.57,0,0,1,1.46-1.42,23.72,23.72,0,0,1,7.32-4.43,22.6,22.6,0,0,1,8.07-1.54,21.75,21.75,0,0,1,9.56,2.07,23.23,23.23,0,0,1,7.33,5.44,24.37,24.37,0,0,1,4.64,7.77,25.84,25.84,0,0,1,1.62,9V594c0,2.22.4,3.77,1.19,4.65s2.35,1.32,4.68,1.32H359.2a5.64,5.64,0,0,0,4.3-1.58,6.66,6.66,0,0,0,1.5-4.74V535.14A63.58,63.58,0,0,0,362.32,516.53Z" transform="translate(-153.35 -329)"/></g><g id="c"><path class="cls-1" d="M233.4,569.17a8,8,0,0,1,2.5-1.19,8.69,8.69,0,0,1,1.71-.22,3.36,3.36,0,0,1,2.55,1.58l2.1,2.9,6.23,8.86a6,6,0,0,1,.71,1.28,3.33,3.33,0,0,1,.26,1.18,3.64,3.64,0,0,1-1,2.5A14.9,14.9,0,0,1,246,588.3a69.53,69.53,0,0,1-16.11,8.78,52.44,52.44,0,0,1-19,3.33,55.43,55.43,0,0,1-15.14-2.06A57.56,57.56,0,0,1,182,592.56,58.68,58.68,0,0,1,161.29,572a57.19,57.19,0,0,1,0-58.28,58.14,58.14,0,0,1,34.41-26.38,56.77,56.77,0,0,1,49,9l-.09-.09a25.47,25.47,0,0,0,2.42,2.15,3.4,3.4,0,0,1,1.18,2.85c0,.35,0,.76,0,1.23a2.46,2.46,0,0,1-.49,1.32l-7.19,11c-1.17,1.76-2.46,2.63-3.86,2.63a5.51,5.51,0,0,1-3.34-1.49,37.74,37.74,0,0,0-10.44-6.14,33,33,0,0,0-12.29-2.37,29.63,29.63,0,0,0-12.86,2.85A34.88,34.88,0,0,0,187.14,518,36.64,36.64,0,0,0,180,529.28a36.18,36.18,0,0,0,7.15,38.4,33.83,33.83,0,0,0,10.58,7.5,30.69,30.69,0,0,0,12.9,2.76,29.87,29.87,0,0,0,12.9-2.58A50.4,50.4,0,0,0,233.4,569.17Z" transform="translate(-153.35 -329)"/></g><path id="r" class="cls-1" d="M767.57,367.8a4.59,4.59,0,0,1,1.71-3.87A6.07,6.07,0,0,1,773,362.6l11.18,0a4.18,4.18,0,0,1,3.35,1.31,9,9,0,0,1,1.77,3.24,22,22,0,0,1,.9,4.17q.27,2.23.63,4.08a51.47,51.47,0,0,1,4.33-5.32,30.25,30.25,0,0,1,5.47-4.63,28.39,28.39,0,0,1,6.93-3.27,29.1,29.1,0,0,1,8.77-1.25,48.55,48.55,0,0,1,7.9.55,36,36,0,0,1,6.72,1.73,36.43,36.43,0,0,1,6.29,3.06q3.07,1.88,6.59,4.41a12.68,12.68,0,0,1,2.6,2.19,4.21,4.21,0,0,1,1.1,2.89,12.63,12.63,0,0,1-.26,1.49,4.58,4.58,0,0,1-.69,1.59l-7.17,11.43a4.44,4.44,0,0,1-3.24,1.67,5.56,5.56,0,0,1-2.72-.69q-2.91-1.58-5.28-3a44,44,0,0,0-4.66-2.4,27,27,0,0,0-4.7-1.57,23.6,23.6,0,0,0-5.4-.55,18.66,18.66,0,0,0-13.19,5q-5.38,5-7.2,13.8l.19,66.18q0,5.26-5.45,5.28l-14.44,0q-5.46,0-5.48-5.25Z" transform="translate(-153.35 -329)"/><path id="e" class="cls-1" d="M730.54,461.91a62.71,62.71,0,0,1-16.87,10.4,52.5,52.5,0,0,1-20.13,3.83,57,57,0,0,1-22.48-4.41,58.81,58.81,0,0,1-31.38-30.5,54.6,54.6,0,0,1-4.76-22.58,59,59,0,0,1,7.33-28.77,56.8,56.8,0,0,1,8.62-11.7,54.33,54.33,0,0,1,11.34-9.11,55.2,55.2,0,0,1,13.58-5.88,57.15,57.15,0,0,1,15.49-2.11,54.19,54.19,0,0,1,13.17,1.59,57.55,57.55,0,0,1,12.34,4.57,58.36,58.36,0,0,1,11,7.21,52.63,52.63,0,0,1,9,9.59,51.67,51.67,0,0,1,7.77,15.86A67.72,67.72,0,0,1,747,418.76a34.14,34.14,0,0,1-.2,4.26,5.35,5.35,0,0,1-1.09,2.77,5.07,5.07,0,0,1-2.63,1.54,19.43,19.43,0,0,1-4.92.5l-77.85.22a29.62,29.62,0,0,0,4.38,11.18,33.34,33.34,0,0,0,7.62,8.23,31.84,31.84,0,0,0,9.58,5.06,32.85,32.85,0,0,0,10.36,1.69,35.52,35.52,0,0,0,7.59-.82,39.34,39.34,0,0,0,6.79-2.12,37.7,37.7,0,0,0,5.83-3,33.48,33.48,0,0,0,4.69-3.57s0-.08.09-.08a12.67,12.67,0,0,1,2-1.55,3.89,3.89,0,0,1,2-.57,4,4,0,0,1,1.8.52,6.39,6.39,0,0,1,2,1.75c1.58,1.93,2.93,3.53,4.05,4.82s2,2.36,2.73,3.24a13.4,13.4,0,0,1,1.54,2.27,4.35,4.35,0,0,1,.49,1.93Q733.88,459.44,730.54,461.91Zm-39.2-79.06a27.94,27.94,0,0,0-10.09,1.92,33.56,33.56,0,0,0-9,5.16,35.65,35.65,0,0,0-7.09,7.65,31.18,31.18,0,0,0-4.4,9.49l62.14-.17a34.16,34.16,0,0,0-4.28-9.78,31.25,31.25,0,0,0-6.92-7.61,30.2,30.2,0,0,0-9.23-4.94A34.51,34.51,0,0,0,691.34,382.85Z" transform="translate(-153.35 -329)"/><path id="k" class="cls-1" d="M575.13,410.23l39.42-41.17a6.11,6.11,0,0,0,1-1.58,4.4,4.4,0,0,0,.27-1.58,2.61,2.61,0,0,0-1-2.11,4.48,4.48,0,0,0-2.9-.79h-20.1a6.25,6.25,0,0,0-2.85.61,9.59,9.59,0,0,0-2.33,1.76L548,407.16V333.83a5.41,5.41,0,0,0-1.14-3.29,4.28,4.28,0,0,0-3.69-1.54H528.28c-2.31,0-3.77.5-4.37,1.49a7.15,7.15,0,0,0-.91,3.78V458.15a11,11,0,0,1,5.1-1.15h14.54a11.16,11.16,0,0,1,5.36,1.28v-21l10.56-11,48.62,62.55c.51-.33,1-.64,1.57-.94a44.92,44.92,0,0,1,10.37-4.16,49.69,49.69,0,0,1,13-1.58h.75Z" transform="translate(-153.35 -329)"/><g id="a_chain" data-name="a chain"><path id="a" class="cls-1" d="M498,527.69a57.64,57.64,0,0,0-39.08-39.87v26.35a33.2,33.2,0,0,1,6,5,35.7,35.7,0,0,1,7.2,11,33.77,33.77,0,0,1,2.26,8.1h0a35.2,35.2,0,0,1-1.37,16,.14.14,0,0,1,0,.06q-.33,1-.72,2.07a33.71,33.71,0,0,1-6.71,10.92,31.92,31.92,0,0,1-10.23,7.38c-.73.34-1.47.64-2.22.91l0,0a31.07,31.07,0,0,1-10.59,1.79,31.56,31.56,0,0,1-13.13-2.72,32.64,32.64,0,0,1-10.4-7.38,33.52,33.52,0,0,1-6.84-10.92,37,37,0,0,1,0-26.55,34.93,34.93,0,0,1,6.84-11.11,33.32,33.32,0,0,1,4.77-4.28V488.11a58.11,58.11,0,0,0-11.43,5.09,57.3,57.3,0,0,0-20.63,20.63,59.16,59.16,0,0,0-5.81,13.82,58.56,58.56,0,0,0,0,30.79,58.91,58.91,0,0,0,5.81,13.81,57.75,57.75,0,0,0,9,11.71,56,56,0,0,0,11.65,9,58.73,58.73,0,0,0,13.77,5.81,56.06,56.06,0,0,0,15.27,2.07,44.11,44.11,0,0,0,5.66-.36,54.17,54.17,0,0,0,10.79-1.89,57.44,57.44,0,0,0,13.72-5.79c1.4-.82,2.75-1.69,4.07-2.63l.25,3.54a10.1,10.1,0,0,0,1.62,3.78c.74,1,2,1.5,3.92,1.5h11a17.73,17.73,0,0,0,2.86-.22,7.83,7.83,0,0,0,2.42-.79,4.44,4.44,0,0,0,2.37-4.18V540.9A56.33,56.33,0,0,0,498,527.69Z" transform="translate(-153.35 -329)"/><path id="a-2" data-name="a" class="cls-1" d="M498,402.69a57.68,57.68,0,0,0-40.21-40.2,55.25,55.25,0,0,0-12.27-2h0c-1.36-.12-2.74-.17-4.15-.17a56.06,56.06,0,0,0-15.27,2.07,58.7,58.7,0,0,0-13.77,5.8,57.3,57.3,0,0,0-20.63,20.63,59.16,59.16,0,0,0-5.81,13.82,58.56,58.56,0,0,0,0,30.79,58.91,58.91,0,0,0,5.81,13.81,57.75,57.75,0,0,0,9,11.71,56,56,0,0,0,11.65,9,58.14,58.14,0,0,0,11.43,5.1V446.46a31.83,31.83,0,0,1-4.77-4.15,33.52,33.52,0,0,1-6.84-10.92,37,37,0,0,1,0-26.55,34.93,34.93,0,0,1,6.84-11.11,33.35,33.35,0,0,1,10.4-7.63c.78-.37,1.58-.71,2.39-1l.06,0a30.89,30.89,0,0,1,9.07-1.31,31.86,31.86,0,0,1,13.3,2.81,34.51,34.51,0,0,1,10.75,7.55,35.7,35.7,0,0,1,7.2,11,33.77,33.77,0,0,1,2.26,8.1h0a35.2,35.2,0,0,1-1.37,16,.14.14,0,0,1,0,.06q-.33,1.05-.72,2.07a33.71,33.71,0,0,1-6.71,10.92,31.19,31.19,0,0,1-6.65,5.46v25.5a56.88,56.88,0,0,0,12.59-5.46c1.4-.82,2.75-1.69,4.07-2.63l.25,3.54a10.1,10.1,0,0,0,1.62,3.78c.74,1,2,1.5,3.92,1.5h11a17.73,17.73,0,0,0,2.86-.22,7.83,7.83,0,0,0,2.42-.79,4.44,4.44,0,0,0,2.37-4.18V415.9A56.33,56.33,0,0,0,498,402.69Z" transform="translate(-153.35 -329)"/><g id="a_link" data-name="a link"><path class="cls-1" d="M428.71,429a3.77,3.77,0,0,1,1.22-2.89,5.36,5.36,0,0,1,3.78-1.15h15.36a5.38,5.38,0,0,1,3.29,1.15A3.49,3.49,0,0,1,453.9,429V532a3.46,3.46,0,0,1-1.45,3,6.69,6.69,0,0,1-3.91,1H433.88a6.13,6.13,0,0,1-4-1,3.75,3.75,0,0,1-1.18-3Z" transform="translate(-153.35 -329)"/></g></g><g id="m"><path class="cls-1" d="M362.33,390.62a45.43,45.43,0,0,0-7.94-15.3A37.19,37.19,0,0,0,341.28,365a41.71,41.71,0,0,0-18.19-3.76,50.77,50.77,0,0,0-11.66,1.32,44.89,44.89,0,0,0-10.3,3.73,35.27,35.27,0,0,0-8.28,5.83,27.89,27.89,0,0,0-5.7,7.54,43.79,43.79,0,0,0-5.88-7.76,32.8,32.8,0,0,0-7.27-5.7,33.43,33.43,0,0,0-9-3.51,48.43,48.43,0,0,0-11.14-1.19,45,45,0,0,0-11.35,1.28,34.42,34.42,0,0,0-8.51,3.37A28.35,28.35,0,0,0,227.7,371a44.78,44.78,0,0,0-4.64,5.75l-1-8.43a9.51,9.51,0,0,0-1.66-3.68,4.39,4.39,0,0,0-3.77-1.67H207.8a12.58,12.58,0,0,0-5.56,1.09,4.12,4.12,0,0,0-2.24,4.07V481.22a61,61,0,0,1,10.84-1A63.49,63.49,0,0,1,225,481.83V407.54a21.94,21.94,0,0,1,2.19-9.56,23,23,0,0,1,5.38-7.1,23.79,23.79,0,0,1,7.31-4.43,22.37,22.37,0,0,1,8.06-1.54,22.09,22.09,0,0,1,10,2.11,19.78,19.78,0,0,1,6.87,5.52,23,23,0,0,1,3.94,7.76,31.44,31.44,0,0,1,1.27,8.9V594c0,2.22.38,3.77,1.14,4.64s2.3,1.32,4.64,1.32h13.48q5.75,0,5.74-6.31V409.2a28,28,0,0,1,1.72-10,23.21,23.21,0,0,1,4.72-7.71,20.13,20.13,0,0,1,7.15-4.91,23.34,23.34,0,0,1,9-1.71,22.38,22.38,0,0,1,10,2.06,20.59,20.59,0,0,1,7,5.43,22.17,22.17,0,0,1,4.11,7.76,31.22,31.22,0,0,1,1.32,9V478c0,2.22.4,3.77,1.19,4.64s2.37,1.32,4.72,1.32h13.3a5.57,5.57,0,0,0,4.3-1.62,6.79,6.79,0,0,0,1.49-4.76v-68.3A63.7,63.7,0,0,0,362.33,390.62Z" transform="translate(-153.35 -329)"/></g></g></svg>